<?xml version="1.0" encoding="UTF-8"?>
<svg width="10px" height="16px" viewBox="0 0 10 16" version="1.1" xmlns="http://www.w3.org/2000/svg" xmlns:xlink="http://www.w3.org/1999/xlink">
    <!-- Generator: Sketch 51.3 (57544) - http://www.bohemiancoding.com/sketch -->
    <title>Shape</title>
    <desc>Created with Sketch.</desc>
    <defs></defs>
    <g id="Symbols" stroke="none" stroke-width="1" fill="none" fill-rule="evenodd">
        <g id="star2-copy" transform="translate(-7.000000, -4.000000)" fill="#FD7422" fill-rule="nonzero">
            <path d="M16.9645905,12.7577294 C17.0030601,12.827526 16.9995628,12.9121544 16.9554102,12.9802061 C13.7001819,17.6586146 12.0483785,19.9985459 12,20 C11.9988343,20 10.3461845,17.6634131 7.04205083,12.9902394 C6.9939638,12.9248051 6.98653217,12.8358144 7.02412748,12.7629642 C7.06128564,12.6896777 7.13647626,12.6443099 7.21822421,12.6443099 L16.7722423,12.6443099 C16.8539903,12.6434375 16.926558,12.6870604 16.9645905,12.7577294 Z M7.21822421,11.3569987 L16.7722423,11.3569987 C16.7757396,11.3569987 16.779674,11.3569987 16.7814226,11.3569987 C16.9016402,11.3569987 17,11.2588473 17,11.1388843 C17,11.0708327 16.9693992,11.0101968 16.9195635,10.9696276 C13.6815852,6.32379083 12.0403011,4.00058164 11.9957113,4 C11.9476243,4.0014541 10.2940726,6.34167621 7.03505635,11.0206663 C6.99090371,11.0869731 6.98915509,11.1733464 7.0258761,11.2440155 C7.06478288,11.3133759 7.13822488,11.3569987 7.21822421,11.3569987 Z" id="Shape"></path>
        </g>
    </g>
</svg>