<?xml version="1.0" encoding="UTF-8"?>
<svg width="20px" height="18px" viewBox="0 0 20 18" version="1.1" xmlns="http://www.w3.org/2000/svg" xmlns:xlink="http://www.w3.org/1999/xlink">
    <!-- Generator: Sketch 51.3 (57544) - http://www.bohemiancoding.com/sketch -->
    <title>✔</title>
    <desc>Created with Sketch.</desc>
    <defs></defs>
    <g id="Page-1" stroke="none" stroke-width="1" fill="none" fill-rule="evenodd">
        <g id="Provision-V1" transform="translate(-1004.000000, -1004.000000)" fill="#FF0004">
            <path d="M1023.48828,1005.76562 C1023.48828,1006.67969 1023.07422,1007.57031 1022.24609,1008.4375 L1022.11719,1008.56641 L1014.875,1016.19531 C1013.33593,1017.81251 1012.0254,1019.0625 1010.94336,1019.94531 C1009.86132,1020.82813 1009.09766,1021.26953 1008.65234,1021.26953 C1008.18359,1021.26953 1007.60157,1021.04883 1006.90625,1020.60742 C1006.21093,1020.16601 1005.76172,1019.71094 1005.55859,1019.24219 C1005.38672,1018.85156 1005.22461,1018.02344 1005.07227,1016.75781 C1004.91992,1015.49218 1004.84375,1014.1211 1004.84375,1012.64453 C1004.84375,1011.83984 1005.17968,1011.09571 1005.85156,1010.41211 C1006.52344,1009.72851 1007.26562,1009.38672 1008.07812,1009.38672 C1008.85157,1009.38672 1009.3125,1010.09374 1009.46094,1011.50781 C1009.47656,1011.67188 1009.48828,1011.79297 1009.49609,1011.87109 C1009.62109,1012.95704 1009.76562,1013.71484 1009.92969,1014.14453 C1010.09375,1014.57422 1010.3164,1014.78906 1010.59766,1014.78906 C1010.71484,1014.78906 1010.93359,1014.66211 1011.25391,1014.4082 C1011.57422,1014.1543 1011.95703,1013.8086 1012.40234,1013.37109 L1019.84375,1006 C1020.46875,1005.375 1021.02734,1004.90235 1021.51953,1004.58203 C1022.01172,1004.26172 1022.42969,1004.10156 1022.77344,1004.10156 C1023.03125,1004.10156 1023.21484,1004.19922 1023.32422,1004.39453 C1023.43359,1004.58984 1023.48828,1004.91797 1023.48828,1005.37891 L1023.48828,1005.76562 Z" id="✔"></path>
        </g>
    </g>
</svg>